<svg xmlns="http://www.w3.org/2000/svg" width="26.409" height="26.409" viewBox="0 0 26.409 26.409">
    <path data-name="Path 309" d="M45.831 22.8H34.288c-5.445 0-7.438 1.983-7.438 7.427v11.544c0 5.445 1.993 7.438 7.438 7.438h11.543c5.434 0 7.427-1.993 7.427-7.438V30.227c0-5.445-1.983-7.427-7.427-7.427" transform="translate(-26.85 -22.8)" style="fill:#c8102f"/>
    <path data-name="Path 310" d="m43.186 47.748-.308.784h-.691l1.46-3.8h.6l1.484 3.788h-.712l-.3-.781zm.242-.689h1.029l-.521-1.359zm10.918-2.369h.68l.012 3.794h-.68zm-2.659 3.117 1.866-.008v.688l-2.533.013-.012-3.8 2.463-.01v.7l-1.791.01v.771l1.238-.005v.7l-1.238.005zm-1.939-3.1h.712l-1.153 3.81h-.576l-.772-2.494-.756 2.5h-.558l-1.188-3.8h.733l.751 2.613.745-2.619h.558l.772 2.613zm-8.6.036h.68l.007 2.15c0 1.087-.521 1.717-1.449 1.721-.907 0-1.436-.614-1.439-1.685l-.007-2.169h.68l.007 2.15c0 .64.272.979.767.977s.763-.343.761-.959zm-3.834.016h.68L38 48.563h-.68l-.005-1.553-1.535.006.005 1.553h-.68L35.1 44.77h.68v1.529l1.535-.006zm7.73-4.859a4.571 4.571 0 0 1-4.282-4.815h.6a3.931 3.931 0 0 0 3.683 4.13 3.939 3.939 0 0 0 3.655-4.168h.6a4.591 4.591 0 0 1-4.256 4.853" transform="translate(-31.838 -31.034)" style="fill:#fff;fill-rule:evenodd"/>
</svg>
